<svg width="200" height="65" viewBox="0 0 200 65" fill="none" xmlns="http://www.w3.org/2000/svg">
  <path d="M199.941 50.0403H87.9941V50.5297H199.941V50.0403Z" fill="#007472"/>
  <path d="M59.9939 54.174C55.7343 58.5435 56.3774 64.517 56.3774 64.517H69.8464V49.8988C69.8464 49.8988 64.7018 49.3386 59.9939 54.174Z" fill="#007472"/>
  <path d="M31.7699 42.9169C29.7994 39.7209 25.8702 36.1179 25.8702 36.1179C25.8702 36.1179 25.2802 36.9199 24.413 38.3233C23.5457 39.7268 22.6431 41.5194 22.6431 41.5194C22.6431 41.5194 25.9705 44.2909 29.0737 50.7892C31.0697 55.0948 32.1371 59.7721 32.2065 64.5169H38.7552C38.6294 61.1878 38.0965 57.8866 37.1681 54.687C35.6401 49.1027 33.5516 45.8064 31.7699 42.9169Z" fill="#007472"/>
  <path d="M51.4867 45.7533C46.6369 50.7944 43.9393 57.5234 43.9645 64.517H50.2418C50.2418 53.4133 59.0914 44.1907 69.9114 43.9666L69.7816 37.6924C66.3504 37.7606 62.9668 38.5081 59.8265 39.8917C56.6863 41.2754 53.8516 43.2676 51.4867 45.7533Z" fill="#007472"/>
  <path d="M0.165039 49.8988V64.517H13.6282C13.6282 64.517 14.2712 58.5435 10.0175 54.174C5.30958 49.3386 0.165039 49.8988 0.165039 49.8988Z" fill="#007472"/>
  <path d="M0.165039 43.9666C4.80635 44.0763 9.25944 45.8224 12.7373 48.8963C13.3427 46.7501 14.0735 44.6414 14.9261 42.5808C10.6157 39.5007 5.47446 37.7946 0.176838 37.6865L0.165039 43.9666Z" fill="#007472"/>
  <path d="M17.6992 55.3356C19.1163 58.1889 19.8533 61.3314 19.8526 64.5169H26.1122C26.138 58.1821 23.9278 52.0411 19.8703 47.1744C18.9257 49.8313 18.1996 52.5607 17.6992 55.3356Z" fill="#007472"/>
  <path d="M56.9496 33.6943C62.0765 31.2943 67.6517 30.8462 69.8464 30.7459V24.7666C65.993 24.8752 62.174 25.5243 58.5012 26.6948C54.242 28.0619 50.2403 30.1285 46.6605 32.8098C43.6104 35.0742 42.9024 36.0471 42.9024 36.0471C42.9024 36.0471 41.4688 33.8535 41.0322 33.2403C40.5956 32.627 39.3154 30.9759 39.3154 30.9759C40.5136 29.8427 41.7977 28.8037 43.1561 27.8683C46.5675 25.3215 50.3085 23.2485 54.277 21.7061C59.2548 19.8 64.5231 18.7628 69.8523 18.6398V12.4363C67.3738 12.4418 64.8983 12.6112 62.4422 12.9435C54.867 13.9872 48.3773 16.3754 41.4039 20.5503C36.933 23.3646 32.8881 26.8039 29.3921 30.7636C29.3921 30.7636 31.9526 32.4324 35.7697 37.6511C38.0239 40.8943 39.8798 44.3966 41.2977 48.0825C42.3897 46.3268 43.5712 44.6282 44.8375 42.9936C48.0868 38.9846 52.2366 35.7986 56.9496 33.6943Z" fill="#007472"/>
  <path d="M19.8406 31.6187C16.793 29.5325 13.4715 27.8775 9.97035 26.7008C4.29483 24.8727 0.495423 24.7666 0.165039 24.7666V30.7401C3.16788 30.9907 6.12188 31.6534 8.9438 32.7096C11.6591 33.7332 14.2356 35.0921 16.6134 36.7548C16.6134 36.7548 17.6223 35.0211 18.2122 34.0718C18.8022 33.1224 19.8406 31.6187 19.8406 31.6187Z" fill="#007472"/>
  <path d="M23.5987 27.3671C23.5987 27.3671 29.2919 21.0516 33.3804 18.4099C37.4689 15.7681 41.4276 12.4659 51.9172 9.20494C62.4069 5.94401 69.8642 6.74008 69.8642 6.74008V0.843271C64.6222 0.81724 59.3938 1.37898 54.2771 2.51796C48.2447 3.82908 42.4395 6.02483 37.05 9.03393C35.7403 9.75334 32.5721 11.7936 32.5721 11.7936C30.7944 10.3928 28.9389 9.09347 27.0146 7.90175C24.7432 6.59266 16.4364 3.04868 9.50427 1.91649C3.04999 0.855064 0.483623 0.772509 0.165039 0.778405V6.76366C4.50734 7.05518 8.80448 7.82243 12.9792 9.05162C19.8465 11.086 23.2978 13.0968 24.5367 13.887C25.4112 14.4645 26.2468 15.0988 27.0382 15.7858C27.0382 15.7858 25.9232 16.7234 25.1149 17.3779C24.3066 18.0325 22.5013 19.6895 22.5013 19.6895C21.7704 19.1311 20.9971 18.6304 20.1886 18.1917C17.3907 16.61 14.4217 15.3518 11.3391 14.4413C7.70301 13.3921 3.96843 12.7202 0.194537 12.4364V18.6221C0.595717 18.6575 7.35088 19.2118 12.5839 21.1283C16.5344 22.6721 20.2436 24.773 23.5987 27.3671Z" fill="#007472"/>
  <path d="M88.0767 26.0934V13.5627H97.0973V15.3907H90.3599V18.8698H96.3186V20.7155H90.3599V24.2536H97.1681V26.0993L88.0767 26.0934Z" fill="#007472"/>
  <path d="M104.301 25.9459C103.728 26.1264 103.131 26.216 102.531 26.2113C100.666 26.2113 99.7579 25.4211 99.7579 23.6285V18.7813H98.5249V17.1656H99.7579V14.9366H101.988V17.1656H104.118V18.7813H101.97V23.2983C101.97 24.1415 102.377 24.4245 103.15 24.4245C103.55 24.4247 103.948 24.3651 104.33 24.2476L104.301 25.9459Z" fill="#007472"/>
  <path d="M111.439 16.9533C113.481 16.9533 114.714 18.2211 114.714 20.3617V26.0934H112.46V20.8924C112.46 19.4653 111.87 18.7282 110.69 18.7282C109.51 18.7282 108.684 19.4477 108.684 21.2403V26.0934H106.437V13.1558H108.684V18.6752C108.915 18.1433 109.302 17.6939 109.794 17.3865C110.286 17.0791 110.86 16.928 111.439 16.9533Z" fill="#007472"/>
  <path d="M119.564 18.6752C119.804 18.1376 120.201 17.6853 120.703 17.3779C121.206 17.0705 121.789 16.9225 122.378 16.9533C124.413 16.9533 125.646 18.2212 125.646 20.3617V26.0934H123.398V20.8924C123.398 19.4654 122.808 18.7283 121.628 18.7283C120.448 18.7283 119.623 19.4477 119.623 21.2403V26.0934H117.345V17.1656H119.564V18.6752Z" fill="#007472"/>
  <path d="M128.212 13.4565H130.602V15.656H128.212V13.4565ZM128.283 17.1656H130.531V26.0933H128.283V17.1656Z" fill="#007472"/>
  <path d="M137.144 16.9533C139.357 16.9533 140.785 18.2388 141.032 20.2201H138.903C138.869 19.7791 138.666 19.368 138.336 19.0734C138.006 18.7787 137.575 18.6233 137.133 18.6398C135.711 18.6398 134.914 19.8192 134.914 21.6295C134.914 23.4398 135.711 24.6192 137.133 24.6192C137.575 24.6312 138.004 24.4735 138.334 24.1784C138.663 23.8833 138.866 23.4734 138.903 23.0329H141.032C140.785 25.0378 139.357 26.3056 137.144 26.3056C134.525 26.3056 132.661 24.5366 132.661 21.6295C132.661 18.7224 134.513 16.9533 137.144 16.9533Z" fill="#007472"/>
  <path d="M93.2981 41.5607C93.9818 41.6226 94.6629 41.4169 95.1977 40.9868C95.7326 40.5567 96.0795 39.9358 96.1654 39.2551H98.4309C97.9943 41.6963 96.3011 43.3828 93.2981 43.3828C89.7583 43.3828 87.3984 40.7823 87.3984 36.8963C87.3984 33.0103 89.7878 30.4099 93.2981 30.4099C96.3011 30.4099 98.0179 32.0963 98.4309 34.5376H96.1654C96.0795 33.8569 95.7326 33.236 95.1977 32.8059C94.6629 32.3758 93.9818 32.17 93.2981 32.232C91.0268 32.232 89.7583 34.001 89.7583 36.8551C89.7583 39.7091 91.0268 41.5607 93.2981 41.5607Z" fill="#007472"/>
  <path d="M104.336 43.4064C101.699 43.4064 99.8169 41.6374 99.8169 38.7302C99.8169 35.8231 101.699 34.0541 104.336 34.0541C106.973 34.0541 108.855 35.8231 108.855 38.7302C108.855 41.6374 106.973 43.4064 104.336 43.4064ZM104.336 41.7317C105.781 41.7317 106.607 40.6113 106.607 38.7302C106.607 36.8492 105.781 35.7229 104.336 35.7229C102.891 35.7229 102.065 36.8669 102.065 38.7302C102.065 40.5936 102.879 41.7317 104.336 41.7317Z" fill="#007472"/>
  <path d="M121.711 34.0541C123.764 34.0541 124.856 35.3396 124.856 37.4624V43.1941H122.59V37.9578C122.59 36.5307 122.059 35.829 120.95 35.829C119.841 35.829 119.038 36.5602 119.038 38.3293V43.2H116.814V37.9578C116.814 36.5307 116.289 35.829 115.18 35.829C114.071 35.829 113.233 36.5602 113.233 38.3293V43.2H110.985V34.2664H113.198V35.7759C113.428 35.246 113.813 34.798 114.303 34.4907C114.792 34.1834 115.363 34.0312 115.941 34.0541C116.532 34.0055 117.122 34.1524 117.621 34.472C118.12 34.7917 118.5 35.2664 118.702 35.8231C118.989 35.2778 119.423 34.8233 119.955 34.5108C120.486 34.1983 121.095 34.0401 121.711 34.0541Z" fill="#007472"/>
  <path d="M138.218 34.0541C140.271 34.0541 141.363 35.3396 141.363 37.4624V43.1941H139.097V37.9578C139.097 36.5307 138.566 35.829 137.463 35.829C136.36 35.829 135.546 36.5602 135.546 38.3292V43.2H133.292V37.9578C133.292 36.5307 132.767 35.829 131.658 35.829C130.549 35.829 129.74 36.5602 129.74 38.3292V43.2H127.493V34.2664H129.705V35.7759C129.935 35.246 130.321 34.7979 130.81 34.4907C131.3 34.1834 131.871 34.0312 132.448 34.0541C133.039 34.0045 133.63 34.1509 134.129 34.4707C134.628 34.7905 135.008 35.2658 135.209 35.8231C135.497 35.2782 135.931 34.8241 136.463 34.5117C136.994 34.1992 137.602 34.0408 138.218 34.0541Z" fill="#007472"/>
  <path d="M149.852 43.1941V41.6963C149.618 42.229 149.228 42.6778 148.732 42.9833C148.237 43.2887 147.661 43.4363 147.079 43.4064C145.073 43.4064 143.894 42.174 143.894 40.0098V34.2664H146.165V39.5086C146.165 40.9297 146.755 41.6551 147.888 41.6551C149.02 41.6551 149.852 40.9062 149.852 39.1135V34.2664H152.118V43.1941H149.852Z" fill="#007472"/>
  <path d="M157.044 35.7759C157.29 35.2374 157.692 34.7852 158.198 34.4781C158.704 34.171 159.291 34.0233 159.882 34.054C161.923 34.054 163.15 35.3219 163.15 37.4624V43.1941H160.903V37.9931C160.903 36.5661 160.313 35.829 159.133 35.829C157.953 35.829 157.127 36.5484 157.127 38.341V43.1941H154.879V34.2663H157.091L157.044 35.7759Z" fill="#007472"/>
  <path d="M165.693 30.5573H168.089V32.7568H165.693V30.5573ZM165.764 34.2663H168.018V43.1941H165.782L165.764 34.2663Z" fill="#007472"/>
  <path d="M175.487 43.0467C174.914 43.2272 174.317 43.3167 173.717 43.312C171.853 43.312 170.938 42.5219 170.938 40.7292V35.8821H169.711V34.2663H170.938V32.0374H173.174V34.2663H175.298V35.8821H173.156V40.399C173.156 41.2423 173.558 41.5253 174.336 41.5253C174.736 41.5255 175.134 41.4658 175.516 41.3484L175.487 43.0467Z" fill="#007472"/>
  <path d="M177.528 30.5573H179.888V32.7568H177.528V30.5573ZM177.599 34.2663H179.846V43.1941H177.581L177.599 34.2663Z" fill="#007472"/>
  <path d="M186.496 43.4064C183.894 43.4064 181.977 41.6373 181.977 38.7479C181.977 35.8585 183.929 34.0305 186.443 34.0305C189.239 34.0305 190.572 36.1592 190.572 38.5297V39.2727H184.154C184.295 40.8531 185.103 41.7494 186.513 41.7494C186.943 41.7849 187.371 41.6719 187.726 41.4292C188.082 41.1866 188.343 40.8291 188.466 40.4167H190.537C190.136 42.3332 188.531 43.4064 186.496 43.4064ZM184.224 37.8162H188.431C188.456 37.543 188.423 37.2674 188.333 37.0082C188.243 36.7489 188.098 36.5121 187.909 36.3136C187.719 36.1151 187.489 35.9597 187.234 35.8577C186.979 35.7558 186.705 35.7098 186.431 35.7228C185.251 35.7228 184.472 36.4422 184.224 37.8162Z" fill="#007472"/>
  <path d="M194.213 40.4875C194.319 41.4192 195.251 41.8379 196.218 41.8379C197.186 41.8379 197.906 41.4546 197.906 40.7352C197.906 40.1455 197.516 39.9096 196.531 39.7327L194.95 39.4497C193.475 39.1843 192.384 38.5003 192.384 36.9022C192.384 35.3042 193.929 34.0541 196.006 34.0541C198.325 34.0541 199.646 35.0742 199.835 36.7961H197.782C197.693 36.0944 197.009 35.6167 196.012 35.6167C195.015 35.6167 194.449 36.0413 194.449 36.6546C194.449 37.2678 194.903 37.4978 195.817 37.657L197.558 37.9578C199.121 38.2172 200 39.0782 200 40.5583C200 42.2624 198.366 43.3887 196.242 43.3887C193.918 43.3887 192.248 42.4216 192.053 40.4403L194.213 40.4875Z" fill="#007472"/>
  <path d="M91.4925 56.3263H88.0884V54.9346H96.6548V56.3263H93.2447V64.4108H91.4748L91.4925 56.3263Z" fill="#007472"/>
  <path d="M99.8407 64.57C97.8761 64.57 96.4248 63.255 96.4248 61.0319C96.4248 58.8088 97.8997 57.4938 99.7994 57.4938C101.912 57.4938 102.92 59.0978 102.92 60.8904V61.4329H98.0767C98.1829 62.6123 98.7906 63.3022 99.8466 63.3022C100.171 63.328 100.494 63.242 100.762 63.0585C101.031 62.8751 101.228 62.6052 101.322 62.2938H102.885C102.59 63.7621 101.381 64.57 99.8407 64.57ZM98.1298 60.3479H101.298C101.318 60.1425 101.293 59.9354 101.226 59.7403C101.158 59.5453 101.05 59.3669 100.908 59.2172C100.766 59.0675 100.594 58.9499 100.403 58.8723C100.211 58.7948 100.006 58.759 99.7994 58.7675C98.9086 58.7675 98.3127 59.3159 98.1298 60.3479Z" fill="#007472"/>
  <path d="M110.183 56.3263H106.785V54.9346H115.351V56.3263H111.941V64.4108H110.171L110.183 56.3263Z" fill="#007472"/>
  <path d="M119.605 63.3494C119.286 64.116 118.425 64.5287 117.363 64.5287C116.047 64.5287 115.091 63.7975 115.091 62.5769C115.091 61.2206 116.153 60.6663 117.522 60.5071L119.54 60.283V59.9587C119.526 59.6466 119.398 59.3504 119.181 59.1263C118.963 58.9022 118.67 58.7659 118.359 58.7433C118.047 58.7208 117.738 58.8135 117.49 59.0039C117.242 59.1943 117.073 59.469 117.015 59.7759H115.38C115.528 58.3312 116.655 57.4821 118.33 57.4821C120.159 57.4821 121.209 58.343 121.209 60.0943V62.6948C121.198 63.2601 121.244 63.8251 121.345 64.3813H119.711C119.647 64.0409 119.611 63.6957 119.605 63.3494ZM119.54 61.7985V61.3857L118.041 61.5567C117.321 61.6511 116.779 61.8103 116.779 62.512C116.779 63.0427 117.15 63.373 117.823 63.373C118.042 63.3936 118.262 63.3681 118.47 63.2982C118.678 63.2283 118.87 63.1155 119.031 62.9671C119.193 62.8187 119.322 62.638 119.41 62.4367C119.497 62.2354 119.541 62.018 119.54 61.7985Z" fill="#007472"/>
  <path d="M127.434 59.1686C127.22 59.1299 127.002 59.1122 126.785 59.1155C125.746 59.1155 124.885 59.829 124.885 61.2914V64.4108H123.186V57.6708H124.856V59.1804C124.965 58.7141 125.229 58.2988 125.606 58.0021C125.982 57.7054 126.447 57.545 126.926 57.547C127.097 57.5455 127.267 57.5633 127.434 57.6V59.1686Z" fill="#007472"/>
  <path d="M128.696 54.8698H130.502V56.5268H128.696V54.8698ZM128.749 57.6708H130.449V64.4108H128.749V57.6708Z" fill="#007472"/>
  <path d="M139.699 64.4108L136.991 56.9631V64.4108H135.369V54.9346H137.864L140.413 62.0639L142.962 54.9346H145.38V64.4108H143.693V56.9631H143.664L141.003 64.4108H139.699Z" fill="#007472"/>
  <path d="M151.528 63.3494C151.209 64.116 150.348 64.5288 149.286 64.5288C147.97 64.5288 147.015 63.7976 147.015 62.5769C147.015 61.2207 148.077 60.6664 149.445 60.5071L151.463 60.2831V59.9587C151.45 59.6466 151.322 59.3504 151.104 59.1263C150.886 58.9022 150.594 58.7659 150.282 58.7434C149.97 58.7208 149.661 58.8135 149.413 59.0039C149.165 59.1943 148.996 59.469 148.938 59.7759H147.31C147.451 58.3312 148.584 57.4821 150.259 57.4821C152.094 57.4821 153.139 58.343 153.139 60.0944V62.6949C153.128 63.2601 153.173 63.8251 153.274 64.3813H151.622C151.562 64.0406 151.531 63.6954 151.528 63.3494ZM148.212 55.3828H152.271V56.5268H148.212V55.3828ZM151.463 61.7985V61.3858L149.965 61.5568C149.245 61.6511 148.702 61.8103 148.702 62.5121C148.702 63.0428 149.074 63.373 149.752 63.373C149.97 63.3927 150.19 63.3666 150.398 63.2963C150.605 63.226 150.796 63.1131 150.957 62.9648C151.118 62.8165 151.246 62.6361 151.333 62.4352C151.421 62.2344 151.465 62.0175 151.463 61.7985Z" fill="#007472"/>
  <path d="M158.702 64.3164C158.269 64.4525 157.817 64.5201 157.363 64.5169C155.953 64.5169 155.263 63.9272 155.263 62.5651V58.8914H154.336V57.6707H155.263V55.9843H156.932V57.6707H158.537V58.8914H156.932V62.2997C156.932 62.9366 157.239 63.1489 157.805 63.1489C158.107 63.15 158.407 63.1063 158.696 63.0191L158.702 64.3164Z" fill="#007472"/>
  <path d="M164.313 63.3494C163.994 64.116 163.133 64.5288 162.071 64.5288C160.755 64.5288 159.799 63.7976 159.799 62.5769C159.799 61.2207 160.861 60.6664 162.23 60.5071L164.248 60.2831V59.9587C164.234 59.6466 164.106 59.3504 163.889 59.1263C163.671 58.9022 163.378 58.7659 163.067 58.7434C162.755 58.7208 162.446 58.8135 162.198 59.0039C161.95 59.1943 161.781 59.469 161.723 59.7759H160.088C160.236 58.3312 161.363 57.4821 163.038 57.4821C164.867 57.4821 165.917 58.343 165.917 60.0944V62.6949C165.903 63.2602 165.949 63.8255 166.053 64.3813H164.419C164.352 64.0413 164.316 63.6959 164.313 63.3494ZM160.991 55.3828H165.056V56.5268H160.991V55.3828ZM164.248 61.7985V61.3858L162.743 61.5568C162.029 61.6511 161.487 61.8103 161.487 62.5121C161.487 63.0428 161.858 63.373 162.531 63.373C162.75 63.3936 162.97 63.3682 163.178 63.2983C163.386 63.2283 163.578 63.1156 163.739 62.9672C163.901 62.8188 164.03 62.6381 164.118 62.4368C164.205 62.2355 164.249 62.018 164.248 61.7985Z" fill="#007472"/>
  <path d="M174.283 62.6713L175.652 57.6708H177.286L175.227 64.4108H173.499L172.195 59.5578H172.159L170.844 64.4285H169.103L167.044 57.6885H168.732L170.1 62.689L171.393 57.6885H172.968L174.283 62.6713Z" fill="#007472"/>
  <path d="M182.537 63.3494C182.218 64.116 181.357 64.5287 180.295 64.5287C178.979 64.5287 178.023 63.7975 178.023 62.5769C178.023 61.2206 179.085 60.6663 180.454 60.5071L182.472 60.283V59.9587C182.458 59.6466 182.331 59.3504 182.113 59.1263C181.895 58.9022 181.602 58.7659 181.291 58.7433C180.979 58.7208 180.67 58.8135 180.422 59.0039C180.174 59.1943 180.005 59.469 179.947 59.7759H178.313C178.46 58.3312 179.587 57.4821 181.262 57.4821C183.091 57.4821 184.141 58.343 184.141 60.0943V62.6948C184.13 63.2601 184.176 63.8251 184.277 64.3813H182.643C182.579 64.0409 182.543 63.6957 182.537 63.3494ZM182.472 61.7985V61.3857L180.973 61.5567C180.254 61.6511 179.711 61.8103 179.711 62.512C179.711 63.0427 180.082 63.373 180.761 63.373C180.979 63.3927 181.199 63.3666 181.406 63.2963C181.614 63.226 181.804 63.1131 181.965 62.9648C182.127 62.8165 182.255 62.6361 182.342 62.4352C182.429 62.2343 182.474 62.0175 182.472 61.7985Z" fill="#007472"/>
  <path d="M188.62 61.5567L187.835 62.3115V64.4108H186.136V54.6457H187.835V60.5425L190.702 57.6531H192.655L189.799 60.4658L192.785 64.3931H190.832L188.62 61.5567Z" fill="#007472"/>
  <path d="M198.029 63.3494C197.711 64.116 196.849 64.5287 195.782 64.5287C194.472 64.5287 193.516 63.7975 193.516 62.5769C193.516 61.2206 194.578 60.6663 195.941 60.5071L197.964 60.283V59.9587C197.978 59.7898 197.954 59.6199 197.894 59.4616C197.833 59.3032 197.738 59.1603 197.615 59.0434C197.493 58.9264 197.346 58.8383 197.184 58.7854C197.023 58.7326 196.852 58.7164 196.684 58.7381C196.534 58.721 196.381 58.7346 196.236 58.7781C196.091 58.8215 195.956 58.8939 195.84 58.9909C195.723 59.0879 195.628 59.2075 195.559 59.3424C195.49 59.4774 195.45 59.6248 195.439 59.7759H193.805C193.953 58.3312 195.08 57.4821 196.755 57.4821C198.584 57.4821 199.634 58.343 199.634 60.0943V62.6948C199.621 63.2599 199.665 63.8249 199.764 64.3813H198.136C198.069 64.0413 198.033 63.6959 198.029 63.3494ZM197.964 61.7985V61.3857L196.46 61.5567C195.746 61.6511 195.198 61.8103 195.198 62.512C195.198 63.0427 195.569 63.373 196.248 63.373C196.466 63.3936 196.687 63.3681 196.895 63.2982C197.103 63.2283 197.294 63.1155 197.456 62.9671C197.618 62.8187 197.747 62.638 197.834 62.4367C197.922 62.2354 197.966 62.018 197.964 61.7985Z" fill="#007472"/>
  <path d="M91.0619 7.24131L89.2094 2.14647V7.24131H88.0825V0.754822H89.7875L91.5574 5.62558L93.2979 0.754822H94.9557V7.24131H93.7757V2.14647L91.935 7.24131H91.0619Z" fill="#007472"/>
  <path d="M96.3657 0.713501H97.6047V1.84569H96.3657V0.713501ZM96.4011 2.62996H97.5811V7.24127H96.4011V2.62996Z" fill="#007472"/>
  <path d="M100.13 3.40836C100.253 3.13076 100.458 2.8971 100.717 2.73815C100.976 2.5792 101.277 2.50243 101.581 2.51795C101.814 2.50157 102.048 2.5368 102.266 2.62112C102.483 2.70544 102.68 2.83677 102.841 3.00575C103.002 3.17472 103.124 3.37717 103.198 3.59864C103.272 3.82012 103.296 4.05516 103.268 4.28699V7.23539H102.088V4.55234C102.088 3.81524 101.77 3.43785 101.162 3.43785C100.554 3.43785 100.13 3.80935 100.13 4.73515V7.24129H98.9497V2.62998H100.094L100.13 3.40836Z" fill="#007472"/>
  <path d="M104.596 0.713501H105.835V1.84569H104.596V0.713501ZM104.637 2.62996H105.817V7.24127H104.637V2.62996Z" fill="#007472"/>
  <path d="M107.965 5.84374C108.018 6.32138 108.496 6.53957 108.997 6.53957C109.499 6.53957 109.87 6.33907 109.87 5.94989C109.87 5.5607 109.67 5.52531 109.162 5.43686L108.33 5.30713C107.569 5.17151 107.003 4.8177 107.003 3.99215C107.003 3.16659 107.805 2.51794 108.879 2.51794C110.059 2.51794 110.755 3.04866 110.856 3.93318H109.794C109.746 3.57347 109.392 3.3435 108.885 3.3435C108.378 3.3435 108.077 3.56168 108.077 3.88011C108.077 4.19853 108.313 4.31647 108.785 4.39902L109.687 4.55234C109.859 4.55768 110.027 4.5967 110.183 4.66717C110.339 4.73764 110.48 4.83818 110.597 4.96304C110.715 5.0879 110.806 5.23464 110.867 5.39487C110.927 5.55509 110.955 5.72565 110.95 5.89681C110.95 6.77544 110.1 7.35333 109.003 7.35333C107.823 7.35333 106.944 6.85799 106.844 5.84964L107.965 5.84374Z" fill="#007472"/>
  <path d="M114.519 7.17642C114.221 7.27 113.911 7.31578 113.599 7.31205C112.637 7.31205 112.165 6.90517 112.165 5.97937V3.46143H111.504V2.62998H112.142V1.45062H113.322V2.62998H114.419V3.46143H113.31V5.82016C113.31 6.25652 113.522 6.40984 113.9 6.40984C114.1 6.40836 114.299 6.37655 114.49 6.31549L114.519 7.17642Z" fill="#007472"/>
  <path d="M118.472 3.65603C118.324 3.62916 118.174 3.61731 118.024 3.62065C117.837 3.61964 117.651 3.65897 117.481 3.73595C117.31 3.81293 117.158 3.92576 117.035 4.06677C116.911 4.20777 116.82 4.37363 116.767 4.55307C116.714 4.73251 116.7 4.92132 116.726 5.10664V7.24128H115.546V2.62998H116.69V3.66192C116.766 3.34384 116.947 3.06068 117.204 2.85838C117.461 2.65608 117.779 2.5465 118.106 2.54743C118.223 2.54368 118.341 2.55558 118.454 2.58281L118.472 3.65603Z" fill="#007472"/>
  <path d="M119.032 2.63H120.212L121.492 6.10322L122.714 2.63H123.894L122.094 7.34745C121.658 8.49733 121.121 8.94549 120.147 8.95138C119.968 8.94891 119.788 8.93512 119.61 8.9101V8.02558C119.714 8.03835 119.819 8.03835 119.923 8.02558C120.395 8.02558 120.596 7.86047 120.838 7.22362L119.032 2.63Z" fill="#007472"/>
  <path d="M126.177 3.46142V2.62997H126.843V1.97542C126.826 1.77615 126.853 1.57549 126.924 1.3882C126.994 1.20091 127.105 1.03175 127.25 0.893159C127.394 0.754567 127.568 0.650067 127.758 0.587343C127.948 0.524619 128.149 0.505265 128.348 0.530706C128.573 0.526663 128.798 0.542449 129.02 0.57788V1.4565C128.873 1.44706 128.725 1.44706 128.578 1.4565C128.242 1.4565 127.988 1.60982 127.988 2.04618V2.63587H128.92V3.46731H127.988V7.24717H126.808V3.46142H126.177Z" fill="#007472"/>
  <path d="M131.782 7.34739C131.463 7.36616 131.143 7.3162 130.844 7.20089C130.546 7.08558 130.276 6.90761 130.052 6.67899C129.828 6.45037 129.656 6.17642 129.548 5.87567C129.439 5.57491 129.396 5.25434 129.422 4.9356C129.374 4.60111 129.399 4.26029 129.495 3.93619C129.59 3.6121 129.754 3.31231 129.976 3.05711C130.197 2.8019 130.471 2.59724 130.779 2.45698C131.086 2.31673 131.42 2.24414 131.758 2.24414C132.096 2.24414 132.43 2.31673 132.738 2.45698C133.046 2.59724 133.319 2.8019 133.541 3.05711C133.762 3.31231 133.926 3.6121 134.022 3.93619C134.118 4.26029 134.142 4.60111 134.095 4.9356C134.12 5.25019 134.078 5.56654 133.972 5.86384C133.866 6.16114 133.699 6.43265 133.48 6.6605C133.262 6.88834 132.997 7.06735 132.705 7.18574C132.412 7.30413 132.097 7.35923 131.782 7.34739ZM131.782 6.48646C132.525 6.48646 132.962 5.89678 132.962 4.9356C132.962 3.97442 132.537 3.38474 131.782 3.38474C131.027 3.38474 130.602 3.97442 130.602 4.9356C130.602 5.89678 131.027 6.48646 131.782 6.48646Z" fill="#007472"/>
  <path d="M138.124 3.65603C137.976 3.62916 137.826 3.61731 137.676 3.62065C137.488 3.61964 137.303 3.65897 137.132 3.73595C136.962 3.81293 136.81 3.92576 136.686 4.06677C136.563 4.20777 136.472 4.37363 136.419 4.55307C136.365 4.73251 136.351 4.92132 136.378 5.10664V7.24128H135.198V2.62998H136.342V3.66192C136.418 3.34384 136.599 3.06068 136.856 2.85838C137.113 2.65608 137.431 2.5465 137.758 2.54743C137.875 2.54368 137.992 2.55558 138.106 2.58281L138.124 3.65603Z" fill="#007472"/>
</svg>
